<?xml version="1.0" encoding="UTF-8"?> <svg xmlns="http://www.w3.org/2000/svg" width="185" height="185" viewBox="0 0 185 185"><g transform="translate(-391 -1587)"><g transform="translate(391 1587)" fill="#f3ac26" stroke="#f3ac26" stroke-width="2"><circle cx="92.5" cy="92.5" r="92.5" stroke="none"></circle><circle cx="92.5" cy="92.5" r="91.5" fill="none"></circle></g><g transform="translate(-8.146 702.381)"><g transform="translate(461.229 987.837)"><path d="M592.231,1147.009h-7.739a18.154,18.154,0,0,0-24.981,0H543.344a6.754,6.754,0,0,0-6.651,5.627l-14.691-4.9a6.84,6.84,0,0,0-9,6.488v.111a6.833,6.833,0,0,0,3.167,5.8l29.263,18.62a16.477,16.477,0,0,0,13.007,2.029l25.584-6.733h8.211a1.686,1.686,0,0,0,1.686-1.686V1148.7a1.686,1.686,0,0,0-1.686-1.686Zm-1.686,23.67H583.8a1.665,1.665,0,0,0-.429.056l-25.795,6.788a13.11,13.11,0,0,1-10.34-1.612l-29.262-18.621a3.479,3.479,0,0,1-1.606-2.952v-.111a3.476,3.476,0,0,1,3.456-3.471,3.521,3.521,0,0,1,1.107.182l16.177,5.394a6.734,6.734,0,0,0,6.232,4.164H560.2a1.686,1.686,0,1,0,0-3.371H543.344a3.366,3.366,0,0,1-3.267-2.536v0a3.373,3.373,0,0,1,3.267-4.2H560.2a1.686,1.686,0,0,0,1.192-.494l.171-.171a14.776,14.776,0,0,1,20.874,0l.17.171a1.688,1.688,0,0,0,1.193.494h6.743Zm0,0" transform="translate(-513 -1142.029)" fill="#fff"></path></g><path d="M469.139,972.062l.081.02a16.091,16.091,0,0,0,3.377.358c.077,0,.155,0,.233,0A5.907,5.907,0,0,0,479.1,975.6l2-.339a5.4,5.4,0,0,0,4.017.9l4.033-.686a7.591,7.591,0,0,0,1.278,1.7l12.179,12.18a1.689,1.689,0,0,0,2.385,0l12.179-12.18a7.586,7.586,0,0,0-10.728-10.729l-2.644,2.644-.713-.713a7,7,0,0,0,1.53-8.651,1.676,1.676,0,0,0,.1-.313l.7-3.253a9.314,9.314,0,0,0-2.066-8.031l-6.241-7.185a9.249,9.249,0,0,0-7.176-3.191l-25.475.485-21.016-10.476A1.685,1.685,0,0,0,441,929.272v25.286a1.687,1.687,0,0,0,.992,1.537l13.115,5.925,2.532,3.106a19.971,19.971,0,0,0,11.237,6.88l.262.055Zm7.586-.157a15.973,15.973,0,0,0,2.068-.7,5.521,5.521,0,0,0,.171,1l-.427.073a2.535,2.535,0,0,1-1.812-.375Zm7.824.941a2.047,2.047,0,0,1-2.062-.908,2.125,2.125,0,0,1-.222-1.842,1.855,1.855,0,0,1,.6-.875l1.617-.807,4.291.524a7.6,7.6,0,0,0-.568,2.875c0,.136,0,.272.011.408Zm18.055-.177a1.685,1.685,0,0,0,2.384,0l3.836-3.835a4.215,4.215,0,0,1,5.961,5.96l-10.989,10.987-10.987-10.987a4.211,4.211,0,0,1-.456-5.419l5.313.649a7.058,7.058,0,0,0,2.213-.08ZM460.253,963l-2.783-3.413a1.683,1.683,0,0,0-.612-.471l-12.486-5.641V932l18.947,9.446a1.763,1.763,0,0,0,.784.177l25.889-.493h.113a5.884,5.884,0,0,1,4.454,2.03l6.244,7.185a5.929,5.929,0,0,1,1.314,5.111l-.321,1.495a7.074,7.074,0,0,0-1.818-.662l-3.071-.662.355-1.647a1.686,1.686,0,1,0-3.3-.71l-.356,1.649-2.413-.52-1.9-4.814a1.686,1.686,0,1,0-3.136,1.238l1.075,2.723-3.541-.762a1.686,1.686,0,1,0-.709,3.3l16.284,3.505a3.6,3.6,0,0,1-1.194,7.1l-13.69-1.67a1.685,1.685,0,0,0-.957.164l-1.3.646-.012,0a4.727,4.727,0,0,0-1.009.506l-2.816,1.4a12.773,12.773,0,0,1-8.255,1.077c-.047-.014-.1-.025-.145-.035-.1-.02-.206-.041-.307-.063A16.6,16.6,0,0,1,460.252,963Zm0,0" fill="#fff"></path></g></g></svg> 